#!OML:ASF G:\acrobat\cartwheel_test\acrobat_wednesday\Session 1\acrobatwednesday.ASF
:FULLY-SPECIFIED
:DEGREES
50
root 26.2951 16.2853 1.04757 72.7859 86.8016 64.5968
lowerback -7.89201 -0.367176 -3.14311
upperback -1.25597 -0.18873 -0.0400838
thorax 3.13555 -0.113293 1.70645
lowerneck -16.1564 -14.9322 -13.8307
upperneck 28.9665 -19.0062 5.57297
head 14.5947 -8.90817 0.942314
rclavicle -4.96962e-016 8.74653e-015
rhumerus -32.0863 -10.8957 -83.9521
rradius 20.884
rwrist 35.5864
rhand -22.2928 5.55527
rfingers 7.12502
rthumb 4.12599 -24.3845
lclavicle -4.96962e-016 8.74653e-015
lhumerus -25.7552 5.3014 83.7435
lradius 17.711
lwrist 9.7245
lhand -22.8987 -13.3182
lfingers 7.12502
lthumb 3.54091 16.6322
rfemur 6.21536 17.9136 21.5504
rtibia -4.7033
rfoot -27.4284 16.6303
rtoes 7.57943
lfemur 1.85515 -5.66437 -25.1983
ltibia 1.36752
lfoot 6.63068 16.5328
ltoes -36.767
51
root 26.2918 16.2853 1.05112 72.2758 86.7989 64.0497
lowerback -7.88253 -0.339847 -3.12064
upperback -1.30332 -0.155212 -0.0235044
thorax 3.07943 -0.0947121 1.71456
lowerneck -16.6407 -14.4684 -13.5701
upperneck 29.3421 -18.3618 5.5901
head 14.7606 -8.57648 1.02084
rclavicle -7.3923e-016 -5.76476e-015
rhumerus -32.09 -11.0727 -83.8742
rradius 20.7827
rwrist 35.7453
rhand -22.0966 5.62394
rfingers 7.12502
rthumb 4.31549 -24.3121
lclavicle -7.3923e-016 -5.76476e-015
lhumerus -25.8886 5.08939 83.9093
lradius 17.9348
lwrist 10.0377
lhand -22.7836 -13.4538
lfingers 7.12502
lthumb 3.65212 16.4947
rfemur 6.18735 18.1142 21.5795
rtibia -4.7775
rfoot -27.753 16.4123
rtoes 8.12459
lfemur 1.80265 -5.76945 -25.1757
ltibia 1.33169
lfoot 6.69026 16.6094
ltoes -36.9009
52
root 26.2891 16.2865 1.0545 72.463 86.819 64.208
lowerback -7.85767 -0.29293 -3.05903
upperback -1.37316 -0.0982293 -0.038109
thorax 2.99014 -0.0629782 1.67078
lowerneck -17.1065 -13.915 -13.2904
upperneck 29.7905 -17.5992 5.61832
head 14.9447 -8.19005 1.13048
rclavicle 2.77056e-015 8.34896e-015
rhumerus -32.2042 -11.1698 -83.891
rradius 20.7854
rwrist 35.5552
rhand -22.1581 5.62907
rfingers 7.12502
rthumb 4.25612 -24.3082
lclavicle 2.77056e-015 8.34896e-015
lhumerus -25.998 4.77571 84.0917
lradius 18.0151
lwrist 10.2452
lhand -22.9009 -13.3911
lfingers 7.12502
lthumb 3.53877 16.5593
rfemur 6.24443 18.3827 21.6691
rtibia -4.91678
rfoot -28.116 16.3802
rtoes 8.32706
lfemur 1.74546 -5.72242 -25.1385
ltibia 1.42057
lfoot 6.48234 16.5297
ltoes -37.3117
53
root 26.2868 16.2876 1.05807 72.7684 86.8769 64.5085
lowerback -7.83027 -0.250226 -2.95322
upperback -1.42718 -0.0511687 -0.038459
thorax 2.91646 -0.0365052 1.61577
lowerneck -17.7371 -13.3966 -12.8922
upperneck 30.3468 -16.8563 5.47706
head 15.186 -7.81491 1.14132
rclavicle 1.83255e-015 -2.78299e-015
rhumerus -32.3168 -11.6432 -83.767
rradius 20.7097
rwrist 35.8284
rhand -22.3052 5.72896
rfingers 7.12502
rthumb 4.11404 -24.2111
lclavicle 1.83255e-015 -2.78299e-015
lhumerus -26.0272 4.50495 84.299
lradius 17.9853
lwrist 10.2907
lhand -23.0664 -13.2262
lfingers 7.12502
lthumb 3.37902 16.7268
rfemur 6.30596 18.5839 21.7988
rtibia -4.99354
rfoot -28.373 16.3954
rtoes 8.39573
lfemur 1.7233 -5.65192 -25.0553
ltibia 1.48564
lfoot 6.33083 16.4301
ltoes -37.5454
54
root 26.2834 16.2862 1.05945 71.2034 86.9294 62.8825
lowerback -7.87216 -0.205316 -2.79666
upperback -1.47237 -0.00398608 -0.00470282
thorax 2.89071 -0.0105461 1.56752
lowerneck -18.5922 -12.7736 -12.3742
upperneck 31.0154 -15.9411 5.22909
head 15.4929 -7.36083 1.11752
rclavicle -2.31708e-015 -2.98177e-015
rhumerus -32.2842 -12.3332 -83.5127
rradius 20.4568
rwrist 36.6777
rhand -22.5539 5.96527
rfingers 7.12502
rthumb 3.87388 -23.9793
lclavicle -2.31708e-015 -2.98177e-015
lhumerus -26.0027 4.45009 84.4895
lradius 17.8966
lwrist 10.1818
lhand -22.9708 -13.2139
lfingers 7.12502
lthumb 3.47129 16.7376
rfemur 6.15685 18.4851 21.8281
rtibia -4.92694
rfoot -28.2178 16.2889
rtoes 8.37281
lfemur 1.64578 -5.64735 -24.9475
ltibia 1.49696
lfoot 6.3642 16.5009
ltoes -37.4596
55
root 26.2812 16.2842 1.06074 69.6999 86.9469 61.3183
lowerback -7.90283 -0.174489 -2.69553
upperback -1.52849 0.0284973 0.0371869
thorax 2.84823 0.00797887 1.55731
lowerneck -19.4096 -12.0812 -11.7942
upperneck 31.6831 -14.9459 4.97121
head 15.7895 -6.87133 1.10299
rclavicle 3.04389e-016 1.78906e-015
rhumerus -32.3147 -12.6043 -83.3993
rradius 20.3293
rwrist 37.1648
rhand -22.873 6.12787
rfingers 7.12502
rthumb 3.56579 -23.8221
lclavicle 3.04389e-016 1.78906e-015
lhumerus -26.0482 4.58291 84.6505
lradius 17.7896
lwrist 9.8534
lhand -22.7456 -13.3759
lfingers 7.12502
lthumb 3.68878 16.5719
rfemur 6.05637 18.3962 21.828
rtibia -4.94446
rfoot -28.0602 16.258
rtoes 8.37788
lfemur 1.58988 -5.71148 -24.8805
ltibia 1.43093
lfoot 6.46006 16.6127
ltoes -37.4116
56
root 26.2811 16.2832 1.06272 69.647 86.9425 61.2237
lowerback -7.9693 -0.177192 -2.68301
upperback -1.55171 0.0249663 0.0777243
thorax 2.86135 0.00656558 1.59194
lowerneck -20.2019 -11.3747 -11.203
upperneck 32.32 -13.9409 4.72025
head 16.0807 -6.37968 1.09473
rclavicle 1.38528e-015 9.93923e-016
rhumerus -32.3676 -12.5629 -83.4319
rradius 20.3265
rwrist 37.3032
rhand -22.8537 6.18044
rfingers 7.12502
rthumb 3.58441 -23.7692
lclavicle 1.38528e-015 9.93923e-016
lhumerus -26.0563 4.87622 84.7845
lradius 17.5974
lwrist 9.36356
lhand -22.4956 -13.5841
lfingers 7.12502
lthumb 3.93018 16.3594
rfemur 6.06557 18.4182 21.8298
rtibia -5.05216
rfoot -28.0742 16.329
rtoes 8.11378
lfemur 1.57098 -5.82679 -24.8803
ltibia 1.33258
lfoot 6.57513 16.6839
ltoes -37.4358
57
root 26.2823 16.2818 1.06435 70.0711 86.9245 61.5509
lowerback -8.11646 -0.19169 -2.70619
upperback -1.57212 0.0117621 0.115456
thorax 2.92273 -0.00045616 1.64292
lowerneck -20.9841 -10.6674 -10.5974
upperneck 32.899 -12.9419 4.46422
head 16.3563 -5.89442 1.0826
rclavicle 1.36664e-015 3.37934e-015
rhumerus -32.3189 -12.473 -83.5247
rradius 20.2646
rwrist 37.3357
rhand -22.6311 6.20777
rfingers 7.12502
rthumb 3.79938 -23.7381
lclavicle 1.36664e-015 3.37934e-015
lhumerus -26.0422 5.05342 84.9637
lradius 17.4185
lwrist 9.07467
lhand -22.2506 -13.6599
lfingers 7.12502
lthumb 4.16675 16.2791
rfemur 5.95979 18.3421 21.77
rtibia -5.0419
rfoot -27.9229 16.441
rtoes 7.66643
lfemur 1.47353 -5.8378 -24.9082
ltibia 1.36163
lfoot 6.5429 16.6732
ltoes -37.4758
58
root 26.2835 16.2805 1.06644 69.9092 86.9072 61.2995
lowerback -8.20971 -0.183406 -2.71269
upperback -1.642 0.0261164 0.149473
thorax 2.90157 0.00841791 1.68343
lowerneck -21.4634 -9.93732 -10.0958
upperneck 33.3161 -11.9477 4.35319
head 16.52 -5.41581 1.16386
rclavicle -2.23633e-016 9.14409e-015
rhumerus -32.2415 -12.3656 -83.6234
rradius 20.0686
rwrist 37.1372
rhand -22.4309 6.1109
rfingers 7.12502
rthumb 3.99265 -23.8314
lclavicle -2.23633e-016 9.14409e-015
lhumerus -26.2347 4.92321 85.2294
lradius 17.4452
lwrist 9.02524
lhand -22.0639 -13.6027
lfingers 7.12502
lthumb 4.34708 16.3327
rfemur 5.82251 18.243 21.7225
rtibia -4.94626
rfoot -27.6732 16.5949
rtoes 7.53696
lfemur 1.37701 -5.79561 -24.9092
ltibia 1.42408
lfoot 6.48316 16.6767
ltoes -37.2708
59
root 26.2841 16.2806 1.06804 69.4147 86.8723 60.7934
lowerback -8.22895 -0.150167 -2.69529
upperback -1.70426 0.0698123 0.158378
thorax 2.8457 0.0323596 1.68744
lowerneck -21.9102 -9.2376 -9.64061
upperneck 33.8115 -10.991 4.25448
head 16.7347 -4.95603 1.25161
rclavicle -3.18055e-015 1.35174e-014
rhumerus -32.2316 -12.37 -83.6947
rradius 19.8839
rwrist 36.9578
rhand -22.4839 6.01018
rfingers 7.12502
rthumb 3.94146 -23.9331
lclavicle -3.18055e-015 1.35174e-014
lhumerus -26.5383 4.47031 85.5801
lradius 17.6153
lwrist 9.15674
lhand -21.9856 -13.5053
lfingers 7.12502
lthumb 4.42268 16.4285
rfemur 5.81811 18.2869 21.7084
rtibia -4.9378
rfoot -27.62 16.7413
rtoes 7.19393
lfemur 1.40262 -5.86559 -24.9311
ltibia 1.31917
lfoot 6.62438 16.7748
ltoes -36.9162
